# xmcd
#
# Track frame offsets: 
#        150
#        10139
#        30222
#        51036
#        68459
#        84084
#        99777
#        117233
#        136250
#        154836
#
# Disc length: 2235 seconds
#
# Revision: 0
# Processed by: cddbd v1.5.2PL0 Copyright (c) Steve Scherf et al.
# Submitted via: ExactAudioCopy v0.99pb4
#
DISCID=6208b90a
DTITLE=Distillery Dave - Contemporary Country Classics Volume 5
DYEAR=2008
DGENRE=Country
TTITLE0=Honk If You Honkytonk
TTITLE1=The Blues Man
TTITLE2=Playboys Of The Southwestern World
TTITLE3=Every Friday Afternoon
TTITLE4=A Jukebox And A Country Song
TTITLE5=She's Not Cryin' Anymore
TTITLE6=Dixie Rose Deluxe Cafe
TTITLE7=Good Ol' Boys Like Me
TTITLE8=Farewell Party
TTITLE9=If Heaven Ain't A Lot Like Dixie
EXTD=
EXTT0=
EXTT1=
EXTT2=
EXTT3=
EXTT4=
EXTT5=
EXTT6=
EXTT7=
EXTT8=
EXTT9=
PLAYORDER=
